# xmcd
# Copyright (C) 1995-1998 Ti Kan
#
# Track frame offsets:
#       150
#       18697
#       41737
#       42772
#
# Disc length: 582 seconds
#
# Revision: 0
# Processed by: cddbd v1.5.1PL0 Copyright (c) Steve Scherf et al.
# Submitted via: CD-Transfer v1.0
#
DISCID=2d024404
DTITLE=Hoostabank - 
DYEAR=04
DGENRE=
TTITLE0=Disappear
TTITLE1=Radio Edit
TTITLE2=Cat Out
TTITLE3=Cat Off
EXTD=
EXTT0=
EXTT1=
EXTT2=
EXTT3=
PLAYORDER=
